<?xml version="1.0" encoding="utf-8"?>
<!-- Generator: Adobe Illustrator 27.9.1, SVG Export Plug-In . SVG Version: 6.00 Build 0)  -->
<svg version="1.1" id="Layer_1" xmlns="http://www.w3.org/2000/svg" xmlns:xlink="http://www.w3.org/1999/xlink" x="0px" y="0px"
	 viewBox="0 0 250 75" style="enable-background:new 0 0 250 75;" xml:space="preserve">
<style type="text/css">
	.st0{fill:#FFFFFF;}
</style>
<g>
	<g>
		<path class="st0" d="M18.8,46.2l-1.2,2.9H0L24.5,0l24.6,49.1H31.4l-1.2-2.9H18.8z M24.5,31.1l-2.9,7h5.7L24.5,31.1z"/>
		<path class="st0" d="M69.2,17.5c9.2,0,16.4,6.8,16.4,15.9c0,8.4-7.3,15.8-16.4,15.8H50.7V33.9h17.7c0.6,0,1-0.4,1-0.9
			s-0.3-0.9-1-0.9h-4.1c-8.8,0-15.7-6.2-15.7-14.8c0-8.7,6.8-16.2,15.7-16.2h16.1v14.6H65.3c-0.5,0-0.9,0.3-0.9,0.8
			c0,0.5,0.3,0.8,0.9,0.8H69.2z"/>
		<path class="st0" d="M95.6,16.2h-9.7v-15h35.8v15h-9.6v32.9H95.6V16.2z"/>
		<path class="st0" d="M142.5,39v10.1h-16.4V1.2h19.4c11.4,0,20,7.7,20,19c0,5.9-4,10.5-6.4,11.8c3.7,2.2,5.9,5.7,5.9,11.3v5.8h-16
			v-5.1c0-3.4-2.7-5.1-5.3-5.1H142.5z M144.4,16.3h-1.9v8.3h1.9c2.5,0,4.3-1.7,4.3-4.1C148.8,18.1,146.9,16.3,144.4,16.3z"/>
		<path class="st0" d="M185,46.2l-1.2,2.9h-17.7L190.7,0l24.6,49.1h-17.7l-1.2-2.9H185z M190.7,31.1l-2.9,7h5.7L190.7,31.1z"/>
		<path class="st0" d="M217.1,1.2h16.4v32.9H250v15h-32.9V1.2z"/>
	</g>
	<g>
		<path class="st0" d="M54.8,69.5h3.9v0.1c0,1.6-0.5,2.9-1.4,3.8c-1,0.9-2.1,1.2-3.2,1.2c-1.4,0-2.3-0.4-3.2-1.3
			c-0.9-0.9-1.4-2.2-1.4-3.6c0-1.5,0.6-2.7,1.4-3.5c0.8-0.8,2.1-1.4,3.5-1.4c0.8,0,1.7,0.2,2.5,0.6c0.8,0.4,1.3,1,1.5,1.4l-1.1,0.8
			c-0.3-0.4-0.7-0.8-1.2-1.1c-0.5-0.3-1.1-0.4-1.7-0.4c-1.2,0-2,0.5-2.5,1c-0.6,0.6-1,1.6-1,2.6c0,0.9,0.4,1.9,1,2.6
			c0.6,0.7,1.5,0.9,2.4,0.9c0.8,0,1.5-0.2,2.1-0.8c0.5-0.5,0.7-1.1,0.8-1.6h-2.3V69.5z"/>
		<path class="st0" d="M66,64.9c1.1,0,1.9,0.1,2.5,0.6c1,0.7,1.1,1.8,1.1,2.2c0,1.4-0.8,2.3-2.1,2.6l2.9,4h-1.7L66,70.5h-0.3v3.9
			h-1.4v-9.4H66z M65.8,69.3h0.5c0.4,0,2,0,2-1.5c0-1.3-1.3-1.5-2-1.5h-0.5V69.3z"/>
		<path class="st0" d="M81.8,72.1h-4l-1,2.3h-1.6l4.7-10l4.5,10h-1.6L81.8,72.1z M81.2,70.7l-1.4-3.2l-1.5,3.2H81.2z"/>
		<path class="st0" d="M89,64.9l2.6,6.6l2.6-6.6h1.6l-4.2,10l-4.2-10H89z"/>
		<path class="st0" d="M102.4,64.9v9.4H101v-9.4H102.4z"/>
		<path class="st0" d="M111.2,66.3v8.1h-1.4v-8.1h-2.2v-1.4h5.8v1.4H111.2z"/>
		<path class="st0" d="M121,70.3l-3.1-5.3h1.6l2.2,3.8l2.2-3.8h1.6l-3.1,5.3v4.1H121V70.3z"/>
		<path class="st0" d="M139.8,64.9c0.6,0,1.4,0.1,2.1,0.5c0.8,0.5,1.2,1.4,1.2,2.3c0,0.6-0.1,1.4-0.9,2.1c-0.7,0.6-1.6,0.7-2.3,0.7
			h-0.6v3.8h-1.4v-9.4H139.8z M139.2,69.2h0.6c1.2,0,1.8-0.6,1.8-1.5c0-0.5-0.2-1.5-1.8-1.5h-0.6V69.2z"/>
		<path class="st0" d="M149.8,64.9V73h2.8v1.4h-4.2v-9.4H149.8z"/>
		<path class="st0" d="M163.8,72.1h-4l-1,2.3h-1.6l4.7-10l4.5,10h-1.6L163.8,72.1z M163.2,70.7l-1.4-3.2l-1.5,3.2H163.2z"/>
		<path class="st0" d="M172.5,70.3l-3.1-5.3h1.6l2.2,3.8l2.2-3.8h1.6l-3.1,5.3v4.1h-1.4V70.3z"/>
		<path class="st0" d="M187.3,66.3h-3.8v2.4h3.6V70h-3.6v3h3.8v1.4h-5.2v-9.4h5.2V66.3z"/>
		<path class="st0" d="M194.9,64.9c1.1,0,1.9,0.1,2.5,0.6c1,0.7,1.1,1.8,1.1,2.2c0,1.4-0.8,2.3-2.1,2.6l2.9,4h-1.7l-2.7-3.9h-0.3
			v3.9h-1.4v-9.4H194.9z M194.6,69.3h0.5c0.4,0,2,0,2-1.5c0-1.3-1.3-1.5-2-1.5h-0.5V69.3z"/>
	</g>
</g>
</svg>
